<svg id="Group_183" data-name="Group 183" xmlns="http://www.w3.org/2000/svg" width="100" height="100" viewBox="0 0 100 100">
  <defs>

  <style>
  .cls-1{
    fill : none;
  }
  </style>
  </defs>
  <g id="Group_58" data-name="Group 58" transform="translate(0 0)">
    <circle id="Ellipse_18" data-name="Ellipse 18" class="cls-1" cx="50" cy="50" r="50"/>
    <path id="Path_27" data-name="Path 27" class="i-account" d="M5913.415,4434.751a23.053,23.053,0,0,0-12.233-12.23c-.486-.206-.977-.4-1.475-.566a14.37,14.37,0,0,0,2.619-2.073,14.282,14.282,0,1,0-20.2,0,14.393,14.393,0,0,0,2.626,2.079c-.494.167-.98.354-1.463.56a22.97,22.97,0,0,0-14.04,21.175v4.116h45.971V4443.7A22.874,22.874,0,0,0,5913.415,4434.751Zm-32.119-24.969a10.93,10.93,0,1,1,10.929,10.932A10.943,10.943,0,0,1,5881.3,4409.782Zm30.572,34.678H5872.6v-.764a19.632,19.632,0,0,1,39.264,0Z" transform="translate(-5841.82 -4373.307)"/>
  </g>
</svg>
