<svg xmlns="http://www.w3.org/2000/svg" width="52" height="52" viewBox="0 0 52 52">
  <g id="Group_254" data-name="Group 254" transform="translate(-1675 234)">
    <path id="Path_113" data-name="Path 113" d="M0,0H52V52H0Z" transform="translate(1675 -234)" fill="none"/>
    <g id="Group_83" data-name="Group 83" transform="translate(1681.074 -230.963)">
      <g id="Group_82" data-name="Group 82" transform="translate(0 13.8)">
        <path id="Path_19" data-name="Path 19" d="M2353.508,558.479a2.662,2.662,0,0,0-2.118-.829h-29.847c-.063-.424-.109-.748-.134-.944a3.675,3.675,0,0,0-1.058-2.567,4.262,4.262,0,0,0-2.812-.64,2.857,2.857,0,0,0-2.368.962,2.638,2.638,0,0,0-.475,2.1l.009,0a1.056,1.056,0,0,0,2.059-.475h0a.49.49,0,0,1,.061-.306,1.053,1.053,0,0,1,.719-.17c1.054,0,1.387.091,1.482.168.061.049.18.269.292,1.184.041.326.135.971.268,1.833a1.037,1.037,0,0,0,.022.141c.619,4.007,1.993,12.349,2.54,15.6a.874.874,0,0,0,.005.091,1.04,1.04,0,0,0,.048.224c.046.271.084.495.113.663a4.039,4.039,0,0,0,1.844,3.215c.976.524,2.294.62,4.541.62h20.313a1.056,1.056,0,1,0,0-2.113h-20.313a9.367,9.367,0,0,1-3.541-.369c-.249-.133-.49-.348-.7-1.413,4.454-.453,20.544-2.081,23.231-2.234a7.1,7.1,0,0,0,3.261-.646,2.71,2.71,0,0,0,1.176-1.939l.029-.115c.345-1.382,1.587-6.9,1.8-8.44.008-.061.017-.121.025-.182C2354.137,560.738,2354.324,559.421,2353.508,558.479Zm-1.628,3.123-.027.187c-.2,1.448-1.431,6.906-1.76,8.221l-.03.12a3.9,3.9,0,0,1-.169.578c-.021.043-.023.045-.051.061a8.2,8.2,0,0,1-2.287.344c-2.8.16-19.183,1.82-23.469,2.256-.568-3.4-1.61-9.737-2.219-13.607h29.521c.356,0,.5.073.522.1.009.01.083.105.09.469A8.625,8.625,0,0,1,2351.88,561.6Z" transform="translate(-2314.646 -553.5)" fill="#272727"/>
        <path id="Path_20" data-name="Path 20" d="M2697.441,1422a3.441,3.441,0,1,0,3.441,3.441A3.445,3.445,0,0,0,2697.441,1422Zm0,4.769a1.328,1.328,0,1,1,1.329-1.328A1.33,1.33,0,0,1,2697.441,1426.769Z" transform="translate(-2682.55 -1395.785)" fill="#272727"/>
        <path id="Path_21" data-name="Path 21" d="M3216.441,1422a3.441,3.441,0,1,0,3.441,3.441A3.445,3.445,0,0,0,3216.441,1422Zm0,4.769a1.328,1.328,0,1,1,1.328-1.328A1.33,1.33,0,0,1,3216.441,1426.769Z" transform="translate(-3185.885 -1395.785)" fill="#272727"/>
      </g>
      <path id="Path_36" data-name="Path 36" d="M1462.89,862.311h-2.725V851.183a2.317,2.317,0,0,0-2.431-2.183h-2.841a2.317,2.317,0,0,0-2.431,2.183v11.128h-2.673a1.7,1.7,0,0,0-1.627,2.531l6.551,10.193a1.99,1.99,0,0,0,3.254,0l6.551-10.193A1.7,1.7,0,0,0,1462.89,862.311Z" transform="translate(-1434.084 -849)" fill="red"/>
    </g>
  </g>
</svg>
