<svg xmlns="http://www.w3.org/2000/svg" width="54" height="55" viewBox="0 0 54 55">
  <g id="Group_254" data-name="Group 254" transform="translate(0.305)">
    <rect id="Rectangle_105" data-name="Rectangle 105" width="54" height="55" transform="translate(-0.305)" fill="none"/>
    <g id="Group_253" data-name="Group 253" transform="translate(4.637 8.503)">
      <path id="Path_19" data-name="Path 19" d="M2358.165,559.076a2.982,2.982,0,0,0-2.372-.928h-33.424c-.07-.475-.122-.837-.149-1.057a4.118,4.118,0,0,0-1.185-2.874,4.774,4.774,0,0,0-3.149-.716,3.2,3.2,0,0,0-2.652,1.077,2.954,2.954,0,0,0-.531,2.354l.009,0a1.183,1.183,0,0,0,2.305-.532h0a.55.55,0,0,1,.069-.343,1.178,1.178,0,0,1,.8-.19c1.18,0,1.553.1,1.659.188.068.055.2.3.327,1.326.046.365.152,1.088.3,2.053a1.134,1.134,0,0,0,.024.158c.693,4.487,2.232,13.829,2.844,17.47a.952.952,0,0,0,.006.1,1.117,1.117,0,0,0,.053.251c.052.3.094.554.126.743.229,1.329.6,2.812,2.064,3.6,1.093.587,2.57.694,5.085.694h22.747a1.183,1.183,0,1,0,0-2.366h-22.747a10.489,10.489,0,0,1-3.965-.413c-.279-.149-.548-.389-.789-1.583,4.988-.507,23-2.33,26.015-2.5a7.948,7.948,0,0,0,3.652-.723,3.036,3.036,0,0,0,1.317-2.171l.032-.129c.387-1.548,1.777-7.727,2.018-9.452.009-.068.019-.136.029-.2C2358.869,561.605,2359.079,560.13,2358.165,559.076Zm-1.823,3.5q-.015.105-.03.21c-.227,1.622-1.6,7.733-1.971,9.206l-.033.134a4.392,4.392,0,0,1-.189.647c-.023.048-.026.05-.057.069a9.184,9.184,0,0,1-2.561.385c-3.134.179-21.481,2.038-26.281,2.527-.637-3.8-1.8-10.9-2.484-15.238h33.058c.4,0,.557.081.584.113.01.011.093.118.1.525A9.644,9.644,0,0,1,2356.342,562.573Z" transform="translate(-2314.646 -553.5)" fill="#272727"/>
      <path id="Path_20" data-name="Path 20" d="M2697.853,1422a3.853,3.853,0,1,0,3.853,3.853A3.858,3.858,0,0,0,2697.853,1422Zm0,5.341a1.487,1.487,0,1,1,1.488-1.488A1.489,1.489,0,0,1,2697.853,1427.341Z" transform="translate(-2681.178 -1392.644)" fill="#272727"/>
      <path id="Path_21" data-name="Path 21" d="M3216.853,1422a3.853,3.853,0,1,0,3.854,3.853A3.857,3.857,0,0,0,3216.853,1422Zm0,5.341a1.487,1.487,0,1,1,1.488-1.488A1.489,1.489,0,0,1,3216.853,1427.341Z" transform="translate(-3182.635 -1392.644)" fill="#272727"/>
    </g>
  </g>
</svg>
