<svg xmlns="http://www.w3.org/2000/svg" width="34.395" height="18.711" viewBox="0 0 34.395 18.711">
  <g id="Group_143" data-name="Group 143" transform="translate(-585.939 -515)">
    <g id="Group_139" data-name="Group 139" transform="translate(590.301 525.753)">
      <path id="Path_49" data-name="Path 49" d="M681.979,749.958a3.979,3.979,0,1,1,3.979-3.979A3.984,3.984,0,0,1,681.979,749.958Zm0-6.537a2.558,2.558,0,1,0,2.558,2.558A2.561,2.561,0,0,0,681.979,743.421Z" transform="translate(-678 -742)"/>
    </g>
    <g id="Group_140" data-name="Group 140" transform="translate(607.733 525.753)">
      <path id="Path_50" data-name="Path 50" d="M1049.979,749.958a3.979,3.979,0,1,1,3.979-3.979A3.984,3.984,0,0,1,1049.979,749.958Zm0-6.537a2.558,2.558,0,1,0,2.558,2.558A2.561,2.561,0,0,0,1049.979,743.421Z" transform="translate(-1046 -742)"/>
    </g>
    <g id="Group_141" data-name="Group 141" transform="translate(599.728 529.022)">
      <rect id="Rectangle_83" data-name="Rectangle 83" width="6.584" height="1.421" transform="translate(0 0)"/>
    </g>
    <g id="Group_142" data-name="Group 142" transform="translate(585.94 515)">
      <path id="Path_51" data-name="Path 51" d="M620.334,530.443h-3.269v-1.421h1.847v-3.363c0-1.408-.948-2.849-7.823-3.844l-.272-.039-.175-.212c-.042-.051-4.285-5.142-7.647-5.142H594.28c-1.06,0-1.458,0-6.558,5.476a3.611,3.611,0,0,0-.358,1.989c.035,1.328.2,3.918.285,5.135h1.326v1.421h-2.652l-.047-.66c-.012-.165-.286-4.063-.333-5.858a4.367,4.367,0,0,1,.692-2.944l.019-.022c5.137-5.517,5.861-5.958,7.626-5.958H603c3.631,0,7.66,4.4,8.563,5.447a19.094,19.094,0,0,1,6.792,1.939,3.647,3.647,0,0,1,1.982,3.272Z" transform="translate(-585.94 -515)"/>
    </g>
  </g>
</svg>
