<svg xmlns="http://www.w3.org/2000/svg" width="39.67" height="41.914" viewBox="0 0 39.67 41.914">
  <g id="Group_261" data-name="Group 261" transform="translate(-42.897 -158.333)">
    <g id="Group_82" data-name="Group 82" transform="translate(42.897 167.687)">
      <path id="Path_19" data-name="Path 19" d="M2353.7,558.254a2.749,2.749,0,0,0-2.128-.792h-30c-.063-.405-.11-.714-.134-.9a3.424,3.424,0,0,0-1.064-2.451,4.46,4.46,0,0,0-2.826-.611,2.939,2.939,0,0,0-2.38.919,2.419,2.419,0,0,0-.477,2.008l.009,0a1.065,1.065,0,0,0,1.266.752,1.009,1.009,0,0,0,.8-1.206h0a.449.449,0,0,1,.062-.292,1.1,1.1,0,0,1,.722-.162,3.345,3.345,0,0,1,1.489.16c.061.047.181.257.293,1.13.041.311.136.927.27,1.751a.916.916,0,0,0,.021.135c.622,3.826,2,11.792,2.553,14.9,0,.029,0,.058.005.087a.955.955,0,0,0,.048.214c.046.259.084.473.113.633a3.819,3.819,0,0,0,1.853,3.07c.981.5,2.306.592,4.564.592h20.416a1.01,1.01,0,1,0,0-2.017h-20.416a9.882,9.882,0,0,1-3.559-.352c-.25-.127-.492-.332-.708-1.349,4.476-.432,20.648-1.987,23.349-2.133a7.451,7.451,0,0,0,3.278-.617,2.57,2.57,0,0,0,1.182-1.851l.029-.11c.347-1.32,1.595-6.589,1.811-8.06.008-.058.017-.116.026-.174C2354.337,560.411,2354.526,559.153,2353.7,558.254Zm-1.636,2.982c-.009.06-.018.12-.027.179-.2,1.383-1.438,6.594-1.769,7.85l-.03.115a3.586,3.586,0,0,1-.17.552c-.021.041-.024.043-.051.058a8.637,8.637,0,0,1-2.3.329c-2.813.153-19.281,1.738-23.588,2.155-.571-3.243-1.618-9.3-2.23-12.993h29.671a.894.894,0,0,1,.524.1c.008.009.083.1.09.448A7.882,7.882,0,0,1,2352.069,561.237Z" transform="translate(-2314.646 -553.5)" fill="#272727"/>
      <path id="Path_20" data-name="Path 20" d="M2697.74,1422a3.74,3.74,0,1,0,3.74,3.74A3.744,3.744,0,0,0,2697.74,1422Zm0,5.184a1.444,1.444,0,1,1,1.444-1.444A1.446,1.446,0,0,1,2697.74,1427.184Z" transform="translate(-2682.69 -1396.921)" fill="#272727"/>
      <path id="Path_21" data-name="Path 21" d="M3216.739,1422a3.74,3.74,0,1,0,3.741,3.74A3.744,3.744,0,0,0,3216.739,1422Zm0,5.184a1.444,1.444,0,1,1,1.444-1.444A1.445,1.445,0,0,1,3216.739,1427.184Z" transform="translate(-3186.758 -1396.921)" fill="#272727"/>
    </g>
    <circle id="Ellipse_22" data-name="Ellipse 22" cx="12.38" cy="12.38" r="12.38" transform="translate(52.229 158.333)" fill="#00c62f"/>
    <g id="Group_132" data-name="Group 132" transform="translate(56.293 171.397) rotate(-45)">
      <rect id="Rectangle_74" data-name="Rectangle 74" width="3.301" height="9.904" fill="#fff"/>
      <rect id="Rectangle_75" data-name="Rectangle 75" width="3.301" height="14.856" transform="translate(14.856 6.603) rotate(90)" fill="#fff"/>
    </g>
  </g>
</svg>
