<svg xmlns="http://www.w3.org/2000/svg" width="28.405" height="17.943" viewBox="0 0 28.405 17.943">
  <g id="Group_144" data-name="Group 144" transform="translate(-591 -971)">
    <path id="Path_52" data-name="Path 52" d="M616.845,971H593.56a2.563,2.563,0,0,0-2.56,2.56v12.822a2.563,2.563,0,0,0,2.56,2.56h23.285a2.563,2.563,0,0,0,2.56-2.56V973.56A2.563,2.563,0,0,0,616.845,971Zm-23.285,1.336h23.285a1.226,1.226,0,0,1,1.225,1.225v1.58H592.336v-1.58A1.226,1.226,0,0,1,593.56,972.336Zm23.285,15.271H593.56a1.226,1.226,0,0,1-1.225-1.225v-9.906H618.07v9.906A1.226,1.226,0,0,1,616.845,987.607Z"/>
    <rect id="Rectangle_84" data-name="Rectangle 84" width="3.096" height="1.238" transform="translate(594.678 983.531)"/>
    <rect id="Rectangle_85" data-name="Rectangle 85" width="2.786" height="1.238" transform="translate(599.012 983.531)"/>
    <rect id="Rectangle_86" data-name="Rectangle 86" width="2.786" height="1.238" transform="translate(603.345 983.531)"/>
  </g>
</svg>
