<svg xmlns="http://www.w3.org/2000/svg" width="48" height="48" viewBox="0 0 48 48">
  <g id="Group_252" data-name="Group 252" transform="translate(5596 -467)">
    <rect id="Rectangle_100" data-name="Rectangle 100" width="48" height="48" transform="translate(-5596 467)" fill="none"/>
    <path id="Path_89" data-name="Path 89" d="M85.145,120.074h5.19v-13h3.621l.386-4.352H90.334v-2.478c0-1.026.206-1.432,1.2-1.432h2.809V94.3H90.748c-3.862,0-5.6,1.7-5.6,4.957v3.469h-2.7v4.406h2.7Z" transform="translate(-5660.445 383.7)" fill="#272727"/>
    <path id="Path_95" data-name="Path 95" d="M85.145,120.074h5.19v-13h3.621l.386-4.352H90.334v-2.478c0-1.026.206-1.432,1.2-1.432h2.809V94.3H90.748c-3.862,0-5.6,1.7-5.6,4.957v3.469h-2.7v4.406h2.7Z" transform="translate(-5660.445 383.7)" fill="#272727"/>
  </g>
</svg>
