<svg xmlns="http://www.w3.org/2000/svg" width="100" height="100" viewBox="0 0 100 100">
  <defs>

  <style>
  .cls-1{
    fill : none;
  }
  </style>
  </defs>
  <g id="Group_248" data-name="Group 248" transform="translate(-0.418)">
    <circle id="Ellipse_15" data-name="Ellipse 15" class="cls-1" cx="50" cy="50" r="50" transform="translate(0.418)"/>
    <g id="Group_52" data-name="Group 52" transform="translate(20.917 17.533)">
      <path id="Path_23" data-name="Path 23" class="i-home" d="M3614.354,2590.107h-8.188a4.318,4.318,0,0,1-4.313-4.314v-11.9a1.873,1.873,0,0,0-1.87-1.87h-6.514a1.872,1.872,0,0,0-1.869,1.87v11.9a4.319,4.319,0,0,1-4.313,4.314H3579.1a5.115,5.115,0,0,1-5.108-5.109v-17.776h-1.984a4.7,4.7,0,0,1-4.382-2.931,4.761,4.761,0,0,1-.3-2.638,4.7,4.7,0,0,1,1.331-2.532l24.72-24.643a4.751,4.751,0,0,1,6.7,0l24.72,24.643a4.7,4.7,0,0,1,1.331,2.532,4.8,4.8,0,0,1-1.948,4.715,4.707,4.707,0,0,1-2.73.854h-1.984V2585A5.115,5.115,0,0,1,3614.354,2590.107Zm-20.885-21.548h6.514a5.344,5.344,0,0,1,5.338,5.337v11.9a.846.846,0,0,0,.845.846h8.188A1.643,1.643,0,0,0,3616,2585v-18.867a2.371,2.371,0,0,1,2.367-2.377h3.084a1.275,1.275,0,0,0,.9-2.177l-24.721-24.644a1.276,1.276,0,0,0-1.8,0l-24.72,24.644a1.275,1.275,0,0,0,.9,2.177h3.084a2.371,2.371,0,0,1,2.367,2.381V2585a1.643,1.643,0,0,0,1.641,1.641h8.188a.847.847,0,0,0,.846-.846v-11.9A5.343,5.343,0,0,1,3593.469,2568.558Zm-19.479-2.427v0Zm45.473,0v0Z" transform="translate(-3567.258 -2533.097)"/>
    </g>
  </g>
</svg>
