<svg xmlns="http://www.w3.org/2000/svg" width="48" height="48" viewBox="0 0 48 48">
  <g id="Group_249" data-name="Group 249" transform="translate(5596 -689)">
    <rect id="Rectangle_102" data-name="Rectangle 102" width="48" height="48" transform="translate(-5596 689)" fill="none"/>
    <path id="Path_94" data-name="Path 94" d="M81.252,21.056h25.6a4.276,4.276,0,0,1,4.267,4.267v12.8a4.257,4.257,0,0,1-.968,2.7.861.861,0,0,1-.1.159,1.242,1.242,0,0,1-.418.369,4.237,4.237,0,0,1-2.782,1.039h-25.6a4.267,4.267,0,0,1-4.262-4.264v-12.8a4.269,4.269,0,0,1,4.262-4.267ZM79.577,38.121a1.483,1.483,0,0,0,.011.22l7.572-5.483a1.291,1.291,0,0,1,1.518,2.09l-6.7,4.851h24.249l-6.811-4.931a1.291,1.291,0,0,1,1.516-2.091l7.59,5.5a1.486,1.486,0,0,0,.008-.156V25.671L97.654,33.754a6.345,6.345,0,0,1-3.826,1.189,6.054,6.054,0,0,1-3.769-1.3L79.607,24.992a1.636,1.636,0,0,0-.03.331v12.8Zm2.45-14.481,9.678,8.018a3.434,3.434,0,0,0,2.14.711,3.78,3.78,0,0,0,2.273-.685l10.815-8.04-.085,0Z" transform="translate(-5665.99 680.944)" fill="#272727"/>
  </g>
</svg>
