<svg id="Group_182" data-name="Group 182" xmlns="http://www.w3.org/2000/svg" width="100" height="100" viewBox="0 0 100 100">
  <defs>

  <style>
  .cls-1{
    fill : none;
  }
  </style>
  </defs>
  <g id="Group_57" data-name="Group 57" transform="translate(0 0)">
    <circle id="Ellipse_17" data-name="Ellipse 17" class="cls-1" cx="50" cy="50" r="50"/>
    <g id="Group_53" data-name="Group 53" transform="translate(25.172 22.193)">
      <path id="Path_25" data-name="Path 25" class="cls-2" d="M2356.368,4425c-.067-.06-6.607-6.078-6.607-18.651,0-8.093-4.025-12.737-7.4-15.209a21.53,21.53,0,0,0-7.617-3.488v-2.355a3.293,3.293,0,0,0-3.293-3.293h0a3.293,3.293,0,0,0-3.293,3.293v2.342a21.545,21.545,0,0,0-7.67,3.5c-3.376,2.472-7.4,7.117-7.4,15.209a29.612,29.612,0,0,1-3.3,14.049,18.72,18.72,0,0,1-3.311,4.6,1.84,1.84,0,0,0,1.236,3.214h47.425a1.844,1.844,0,0,0,1.232-3.216Zm-24.945-.473H2311.6c.434-.64.889-1.375,1.342-2.207a30.505,30.505,0,0,0,2.643-6.651,35.852,35.852,0,0,0,1.191-9.321c0-5.255,1.983-9.371,5.891-12.233a13.559,13.559,0,0,1,17.516,0c3.909,2.862,5.891,6.978,5.891,12.233a35.862,35.862,0,0,0,1.191,9.321,30.493,30.493,0,0,0,2.643,6.651c.453.833.909,1.567,1.342,2.207Z" transform="translate(-2305.859 -4382)"/>
      <path id="Path_26" data-name="Path 26" class="i-notification" d="M2648,5316.032c0,.006,0,.015,0,.022a7.562,7.562,0,0,0,15.123,0v-.022Z" transform="translate(-2629.971 -5266.814)"/>
    </g>
  </g>
</svg>
