<svg xmlns="http://www.w3.org/2000/svg" width="76" height="44" viewBox="0 0 76 44">
  <g id="Group_258" data-name="Group 258" transform="translate(-6812 620)">
    <rect id="Rectangle_109" data-name="Rectangle 109" width="76" height="44" transform="translate(6812 -620)" fill="none"/>
    <g id="Group_144" data-name="Group 144" transform="translate(6235.401 -1582.119)">
      <path id="Path_52" data-name="Path 52" d="M628.853,971h-34.1a3.754,3.754,0,0,0-3.75,3.75v18.779a3.754,3.754,0,0,0,3.75,3.75h34.1a3.754,3.754,0,0,0,3.75-3.75V974.75A3.754,3.754,0,0,0,628.853,971Zm-34.1,1.956h34.1a1.8,1.8,0,0,1,1.794,1.794v2.314H592.956V974.75A1.8,1.8,0,0,1,594.75,972.956Zm34.1,22.367h-34.1a1.8,1.8,0,0,1-1.793-1.793V979.021h37.691v14.509A1.8,1.8,0,0,1,628.853,995.323Z" transform="translate(0 0)"/>
      <rect id="Rectangle_84" data-name="Rectangle 84" width="4.534" height="1.814" transform="translate(596.387 989.353)"/>
      <rect id="Rectangle_85" data-name="Rectangle 85" width="4.08" height="1.814" transform="translate(602.734 989.353)"/>
      <rect id="Rectangle_86" data-name="Rectangle 86" width="4.08" height="1.814" transform="translate(609.081 989.353)"/>
    </g>
  </g>
</svg>
