<svg xmlns="http://www.w3.org/2000/svg" width="54" height="50" viewBox="0 0 54 50">
  <g id="Group_253" data-name="Group 253" transform="translate(-1652 146)">
    <g id="Group_251" data-name="Group 251" transform="translate(-130.179 -1197.108) rotate(-30)">
      <path id="Path_41" data-name="Path 41" d="M1223.151,1901.646l-1.132,3.615h2.265l-1.1-3.615Z" transform="translate(-199.299 -68.262)" fill="red"/>
      <path id="Path_42" data-name="Path 42" d="M1054.817,1833.43l-4.359-5.053a1.087,1.087,0,0,0-.824-.377h-41.547a1.088,1.088,0,0,0-1.088,1.088v13.25a1.088,1.088,0,0,0,1.088,1.088h41.547a1.088,1.088,0,0,0,.824-.377l4.359-5.053A3.494,3.494,0,0,0,1054.817,1833.43Zm-37.832,6.86a5.639,5.639,0,0,1-3.006.757,5.156,5.156,0,0,1-3.006-.85,3.39,3.39,0,0,1-1.332-2.818h2.591a1.525,1.525,0,0,0,.564,1.24,2.139,2.139,0,0,0,1.335.359,2.624,2.624,0,0,0,.612-.071,1.6,1.6,0,0,0,.5-.177.893.893,0,0,0,.5-.813.777.777,0,0,0-.239-.58,1.854,1.854,0,0,0-.642-.375q-.854-.276-1.989-.552a5.491,5.491,0,0,1-1.989-.955,2.388,2.388,0,0,1-.936-2.029,2.723,2.723,0,0,1,.375-1.457,2.87,2.87,0,0,1,.968-.976,5.394,5.394,0,0,1,2.719-.707,4.926,4.926,0,0,1,2.746.78,2.823,2.823,0,0,1,.913,1.019,3.372,3.372,0,0,1,.334,1.51h-2.59a1,1,0,0,0-.479-.979,2.37,2.37,0,0,0-1.136-.261,1.952,1.952,0,0,0-.828.177.739.739,0,0,0-.431.707.6.6,0,0,0,.267.481,2.44,2.44,0,0,0,.643.333q.438.127.938.254l.534.135q.253.071.52.156a5.252,5.252,0,0,1,2,.948,2.458,2.458,0,0,1,.894,2.037A2.935,2.935,0,0,1,1016.985,1840.29Zm9.227.538-.614-1.844h-3.48l-.628,1.844h-2.667l3.725-10.3h2.64l3.732,10.3Zm11.032,0H1030v-10.3h2.59v7.986h4.655Zm9.649,0h-8.084v-10.3h7.941v2.14H1041.4v1.818h4.893v2.071H1041.4v1.958h5.494Z" transform="translate(0 0)" fill="red"/>
    </g>
    <rect id="Rectangle_105" data-name="Rectangle 105" width="54" height="50" transform="translate(1652 -146)" fill="none"/>
    <g id="Group_252" data-name="Group 252" transform="translate(-130.179 -1197.108) rotate(-30)">
      <path id="Path_41-2" data-name="Path 41" d="M1223.151,1901.646l-1.132,3.615h2.265l-1.1-3.615Z" transform="translate(-199.299 -68.262)" fill="red"/>
      <path id="Path_42-2" data-name="Path 42" d="M1054.817,1833.43l-4.359-5.053a1.087,1.087,0,0,0-.824-.377h-41.547a1.088,1.088,0,0,0-1.088,1.088v13.25a1.088,1.088,0,0,0,1.088,1.088h41.547a1.088,1.088,0,0,0,.824-.377l4.359-5.053A3.494,3.494,0,0,0,1054.817,1833.43Zm-37.832,6.86a5.639,5.639,0,0,1-3.006.757,5.156,5.156,0,0,1-3.006-.85,3.39,3.39,0,0,1-1.332-2.818h2.591a1.525,1.525,0,0,0,.564,1.24,2.139,2.139,0,0,0,1.335.359,2.624,2.624,0,0,0,.612-.071,1.6,1.6,0,0,0,.5-.177.893.893,0,0,0,.5-.813.777.777,0,0,0-.239-.58,1.854,1.854,0,0,0-.642-.375q-.854-.276-1.989-.552a5.491,5.491,0,0,1-1.989-.955,2.388,2.388,0,0,1-.936-2.029,2.723,2.723,0,0,1,.375-1.457,2.87,2.87,0,0,1,.968-.976,5.394,5.394,0,0,1,2.719-.707,4.926,4.926,0,0,1,2.746.78,2.823,2.823,0,0,1,.913,1.019,3.372,3.372,0,0,1,.334,1.51h-2.59a1,1,0,0,0-.479-.979,2.37,2.37,0,0,0-1.136-.261,1.952,1.952,0,0,0-.828.177.739.739,0,0,0-.431.707.6.6,0,0,0,.267.481,2.44,2.44,0,0,0,.643.333q.438.127.938.254l.534.135q.253.071.52.156a5.252,5.252,0,0,1,2,.948,2.458,2.458,0,0,1,.894,2.037A2.935,2.935,0,0,1,1016.985,1840.29Zm9.227.538-.614-1.844h-3.48l-.628,1.844h-2.667l3.725-10.3h2.64l3.732,10.3Zm11.032,0H1030v-10.3h2.59v7.986h4.655Zm9.649,0h-8.084v-10.3h7.941v2.14H1041.4v1.818h4.893v2.071H1041.4v1.958h5.494Z" transform="translate(0 0)" fill="red"/>
    </g>
  </g>
</svg>
