<svg id="Group_184" data-name="Group 184" xmlns="http://www.w3.org/2000/svg" width="99.286" height="99.286" viewBox="0 0 99.286 99.286">
  <defs>

  <style>
  .cls-1{
    fill : none;
  }
  </style>
  </defs>
  <g id="Group_56" data-name="Group 56" transform="translate(0 0)">
    <path id="Path_107" data-name="Path 107" class="cls-1" d="M49.643,0A49.643,49.643,0,1,1,0,49.643,49.639,49.639,0,0,1,49.643,0Z"/>
    <path id="Path_24" data-name="Path 24" class="i-shop" d="M6287.943,2453.3l-5.035-33.731a4.782,4.782,0,0,0-1.811-3.061,5.491,5.491,0,0,0-3.386-1.152H6275.2v-7.47a8.887,8.887,0,0,0-17.774,0v7.47H6254.9a5.5,5.5,0,0,0-3.386,1.152,4.8,4.8,0,0,0-1.811,3.061l-5.034,33.731a4.665,4.665,0,0,0,1.1,3.734,5.378,5.378,0,0,0,4.094,1.827h32.878a5.384,5.384,0,0,0,4.094-1.827A4.67,4.67,0,0,0,6287.943,2453.3Zm-27.1-45.414a5.469,5.469,0,0,1,10.939,0v7.47H6260.84Zm23.412,46.917a1.967,1.967,0,0,1-1.5.64h-32.878a1.961,1.961,0,0,1-1.5-.64,1.236,1.236,0,0,1-.313-1l5.034-33.732a1.74,1.74,0,0,1,1.817-1.3h2.517v4.662a3.345,3.345,0,1,0,3.419.014v-4.677h10.939v4.662a3.343,3.343,0,1,0,3.417.014v-4.677h2.517a1.738,1.738,0,0,1,1.817,1.3l5.037,33.732A1.24,1.24,0,0,1,6284.252,2454.8Z" transform="translate(-6216.971 -2383.271)"/>
  </g>
</svg>
