<svg xmlns="http://www.w3.org/2000/svg" width="45" height="40.486" viewBox="0 0 45 40.486">
  <path id="Path_114" data-name="Path 114" d="M631.231,523.05a8.312,8.312,0,0,1,8.3,8.3c0,2.4-1.793,5.106-3.328,6.7-1.45,1.5-9.971,10-14.7,14.711L606.74,537.992l-.141-.14-.152-.127a8.3,8.3,0,1,1,11.65-11.746l3.4,4,3.4-4a8.3,8.3,0,0,1,6.328-2.929m0-4.467a12.74,12.74,0,0,0-9.731,4.5,12.769,12.769,0,1,0-17.918,18.065L621.5,559.069s15.849-15.776,17.918-17.918,4.582-5.862,4.582-9.8a12.769,12.769,0,0,0-12.769-12.769Z" transform="translate(-599 -518.583)"/>
</svg>
